<svg viewBox="0 0 16 16">  <path d="m 15.940274,3.1408585 c 0,0.057268 -0.01816,0.1089432 -0.05308,0.1564316 -0.03631,0.046089 -0.07403,0.069834 -0.117324,0.069834 -0.347779,0.033522 -0.634104,0.1452582 -0.854785,0.3366068 -0.222076,0.1899525 -0.449739,0.5544928 -0.685782,1.0908284 l -3.603504,8.1204567 c -0.02374,0.07542 -0.08939,0.113133 -0.19833,0.113133 -0.0852,0 -0.150844,-0.03771 -0.198333,-0.113133 L 8.208104,8.6885791 5.8839833,12.915016 c -0.047487,0.07542 -0.1131332,0.113133 -0.1983322,0.113133 -0.1033562,0 -0.1717952,-0.03771 -0.2053159,-0.113133 L 1.9396824,4.7945602 C 1.7190027,4.2903488 1.4857528,3.9383783 1.2399322,3.7386496 0.99550856,3.5389202 0.65331525,3.4146134 0.21614591,3.367125 c -0.0377113,0 -0.0740255,-0.01955 -0.10614978,-0.060061 -0.033521,-0.039105 -0.0502815,-0.085197 -0.0502815,-0.1368748 0,-0.1326875 0.0377113,-0.1983323 0.11313325,-0.1983323 0.31565583,0 0.64527869,0.013964 0.99026542,0.041899 0.319846,0.029332 0.6215347,0.043296 0.9036694,0.043296 0.287722,0 0.6271217,-0.013964 1.0181999,-0.043296 0.4092347,-0.027936 0.7723786,-0.041899 1.0880348,-0.041899 0.075422,0 0.1131332,0.065646 0.1131332,0.1983323 0,0.1312903 -0.023746,0.1969352 -0.069835,0.1969352 -0.315656,0.023746 -0.5642702,0.1047533 -0.745842,0.2402337 -0.1815722,0.1368774 -0.2723577,0.3156562 -0.2723577,0.5377328 0,0.1131332 0.037711,0.2542007 0.1131332,0.4232023 L 6.2373502,11.176116 7.8980348,8.0391106 6.3504834,4.7945602 C 6.0725392,4.2163233 5.8434792,3.8420057 5.6647004,3.6744006 5.4859216,3.5081925 5.2149609,3.4048363 4.8518169,3.367125 c -0.033522,0 -0.06425,-0.01955 -0.094976,-0.060061 -0.030729,-0.039107 -0.046089,-0.085199 -0.046089,-0.1368769 0,-0.1326874 0.032125,-0.1983322 0.099166,-0.1983322 0.3156555,0 0.604774,0.013964 0.8687518,0.041899 0.2542007,0.029332 0.5251621,0.043296 0.8128834,0.043296 0.2821349,0 0.5810305,-0.013964 0.8966861,-0.043296 0.3254326,-0.027936 0.6452789,-0.041899 0.9609345,-0.041899 0.075422,0 0.1131332,0.065646 0.1131332,0.1983322 0,0.1312904 -0.022349,0.1969353 -0.069835,0.1969353 -0.6313112,0.043296 -0.9469674,0.2220765 -0.9469674,0.5377327 0,0.1410675 0.072629,0.3603505 0.219283,0.6564525 L 8.688574,6.6396075 9.7067739,4.7386892 C 9.8478414,4.4705214 9.9190734,4.2442549 9.9190734,4.0598898 c 0,-0.4329795 -0.3156563,-0.663436 -0.9469673,-0.6927673 -0.057268,0 -0.0852,-0.065647 -0.0852,-0.1969353 0,-0.047485 0.013964,-0.092183 0.041901,-0.1340838 0.029332,-0.043296 0.057268,-0.06425 0.085199,-0.06425 0.2262665,0 0.5042115,0.013964 0.8338348,0.041899 0.3156551,0.029332 0.5754421,0.043296 0.7779651,0.043296 0.145258,0 0.360351,-0.012567 0.642486,-0.036315 0.357556,-0.032125 0.657848,-0.048882 0.898082,-0.048882 0.05587,0 0.08381,0.055871 0.08381,0.169001 0,0.1508446 -0.05168,0.2262665 -0.155035,0.2262665 -0.367334,0.037711 -0.663436,0.139671 -0.886909,0.3044826 C 10.984766,3.8364126 10.705425,4.21073 10.371614,4.7945542 L 9.0140106,7.3044376 10.852077,11.04901 13.565879,4.7386869 c 0.09358,-0.2304565 0.141067,-0.4427565 0.141067,-0.6355018 0,-0.46231 -0.315656,-0.7067337 -0.946967,-0.736065 -0.05727,0 -0.0852,-0.065647 -0.0852,-0.1969352 0,-0.1326874 0.0419,-0.1983323 0.127101,-0.1983323 0.230456,0 0.504212,0.013964 0.819867,0.041899 0.291913,0.029332 0.537732,0.043296 0.734668,0.043296 0.208109,0 0.448343,-0.013965 0.7207,-0.043296 0.283532,-0.027936 0.537733,-0.041899 0.764,-0.041899 0.06565,0 0.09917,0.055871 0.09917,0.169001 z" style="stroke-width:0.13967071" /></svg>
