<?xml version="1.0" encoding="UTF-8" standalone="no"?>
<svg
   xmlns:sketch="http://www.bohemiancoding.com/sketch/ns"
   xmlns:dc="http://purl.org/dc/elements/1.1/"
   xmlns:cc="http://creativecommons.org/ns#"
   xmlns:rdf="http://www.w3.org/1999/02/22-rdf-syntax-ns#"
   xmlns:svg="http://www.w3.org/2000/svg"
   xmlns="http://www.w3.org/2000/svg"
   xmlns:sodipodi="http://sodipodi.sourceforge.net/DTD/sodipodi-0.dtd"
   xmlns:inkscape="http://www.inkscape.org/namespaces/inkscape"
   sodipodi:docname="logo-square.svg"
   id="svg4601"
   version="1.1"
   viewBox="0 0 500 500"
   height="500px"
   width="500px"
   inkscape:version="0.92.0 r">
  <sodipodi:namedview
     inkscape:current-layer="svg4601"
     inkscape:window-maximized="1"
     inkscape:window-y="55"
     inkscape:window-x="0"
     inkscape:cy="250"
     inkscape:cx="-390.88983"
     inkscape:zoom="0.472"
     showgrid="false"
     id="namedview4603"
     inkscape:window-height="1311"
     inkscape:window-width="2560"
     inkscape:pageshadow="2"
     inkscape:pageopacity="0"
     guidetolerance="10"
     gridtolerance="10"
     objecttolerance="10"
     borderopacity="1"
     bordercolor="#666666"
     pagecolor="#ffffff" />
  <metadata
     id="metadata4605">
    <rdf:RDF>
      <cc:Work
         rdf:about="">
        <dc:format>image/svg+xml</dc:format>
        <dc:type
           rdf:resource="http://purl.org/dc/dcmitype/StillImage" />
      </cc:Work>
    </rdf:RDF>
  </metadata>
  <!-- Generator: Sketch 3.2.2 (9983) - http://www.bohemiancoding.com/sketch -->
  <title
     id="title4566">logo-square</title>
  <desc
     id="desc4568">Created with Sketch.</desc>
  <defs
     id="defs4570" />
  <g
     sketch:type="MSPage"
     fill-rule="evenodd"
     fill="none"
     stroke-width="1"
     stroke="none"
     id="g4599">
    <g
       sketch:type="MSArtboardGroup"
       id="logo-square">
      <g
         transform="translate(2.000000, 19.000000)"
         sketch:type="MSLayerGroup"
         id="logo-no-bg">
        <g
           sketch:type="MSShapeGroup"
           id="Page-1">
          <g
             id="gitlab_logo">
            <g
               transform="translate(248.000000, 228.833300) scale(1, -1) translate(-248.000000, -228.833300) translate(0.000000, 0.333300)"
               id="g10">
              <g
                 id="g16">
                <g
                   id="g18-Clipped">
                  <g
                     id="g18">
                    <g
                       id="g4589">
                      <g
                         transform="translate(0.666658, 0.666658)"
                         id="Group">
                        <g
                           fill="#909090"
                           transform="translate(0.532000, 0.774933)"
                           id="g44">
                          <path
                             id="path46"
                             d="M491.999988,194.666662 L464.441322,279.481326 L409.82399,447.578655 C407.014656,456.226655 394.778657,456.226655 391.96799,447.578655 L337.349325,279.481326 L155.982663,279.481326 L101.362664,447.578655 C98.5533309,456.226655 86.3173312,456.226655 83.5066646,447.578655 L28.8893326,279.481326 L1.33199997,194.666662 C-1.18266664,186.930662 1.57199996,178.455996 8.1519998,173.674662 L246.665327,0.385333324 L485.179988,173.674662 C491.759988,178.455996 494.513321,186.930662 491.999988,194.666662" />
                        </g>
                        <g
                           fill="#707070"
                           transform="translate(156.197863, 1.160267)"
                           id="g48">
                          <path
                             id="path50"
                             d="M90.9999977,0 L90.9999977,0 L181.683995,279.095993 L0.31599997,279.095993 L90.9999977,0 L90.9999977,0 Z" />
                        </g>
                        <g
                           fill="#909090"
                           transform="translate(28.531199, 1.160800)"
                           id="g56">
                          <path
                             id="path58"
                             d="M218.666661,0 L127.982663,279.09466 L0.890666644,279.09466 L218.666661,0 L218.666661,0 Z" />
                        </g>
                        <g
                           fill="#afafaf"
                           transform="translate(0.088533, 0.255867)"
                           id="g64">
                          <path
                             id="path66"
                             d="M29.3333326,279.999993 L29.3333326,279.999993 L1.77466662,195.185328 C-0.738666648,187.449329 2.01466662,178.974662 8.59599979,174.194662 L247.109327,0.905333311 L29.3333326,279.999993 L29.3333326,279.999993 Z" />
                        </g>
                        <g
                           fill="#707070"
                           transform="translate(29.421866, 280.255593)"
                           id="g72">
                          <path
                             id="path74"
                             d="M0,0 L127.091997,0 L72.4733315,168.097329 C69.6626649,176.746662 57.4266652,176.746662 54.617332,168.097329 L0,0 L0,0 Z" />
                        </g>
                        <g
                           fill="#909090"
                           transform="translate(247.197860, 1.160800)"
                           id="g76">
                          <path
                             id="path78"
                             d="M0,0 L90.6839977,279.09466 L217.775995,279.09466 L0,0 L0,0 Z" />
                        </g>
                        <g
                           fill="#afafaf"
                           transform="translate(246.307061, 0.255867)"
                           id="g80">
                          <path
                             id="path82"
                             d="M218.666661,279.999993 L218.666661,279.999993 L246.225327,195.185328 C248.73866,187.449329 245.985327,178.974662 239.403994,174.194662 L0.890666644,0.905333311 L218.666661,279.999993 L218.666661,279.999993 Z" />
                        </g>
                        <g
                           fill="#707070"
                           transform="translate(336.973725, 280.255593)"
                           id="g84">
                          <path
                             id="path86"
                             d="M127.999997,0 L0.907999977,0 L55.5266653,168.097329 C58.3373319,176.746662 70.5733316,176.746662 73.3826648,168.097329 L127.999997,0 L127.999997,0 Z" />
                        </g>
                      </g>
                    </g>
                  </g>
                </g>
              </g>
            </g>
          </g>
        </g>
      </g>
    </g>
  </g>
</svg>
